<svg width="30" height="30" viewBox="0 0 30 30" xmlns="http://www.w3.org/2000/svg">
<g filter="url(#filter0_d_85_5274)">
<path d="M15 8.97034e-05C8.92488 8.97034e-05 4 4.92497 4 11C4 15.6602 6.8994 19.644 10.9913 21.2467C10.8952 20.3764 10.8082 19.0379 11.0294 18.0878C11.2293 17.2293 12.3193 12.6201 12.3193 12.6201C12.3193 12.6201 11.9903 11.9612 11.9903 10.987C11.9903 9.45743 12.8768 8.31552 13.9807 8.31552C14.9192 8.31552 15.3724 9.0201 15.3724 9.86499C15.3724 10.8088 14.7716 12.2199 14.4615 13.5275C14.2023 14.6223 15.0105 15.5152 16.0904 15.5152C18.0454 15.5152 19.5483 13.4537 19.5483 10.4781C19.5483 7.84429 17.6558 6.00285 14.9535 6.00285C11.8236 6.00285 9.98653 8.35041 9.98653 10.7765C9.98653 11.7219 10.3507 12.7357 10.8052 13.2868C10.8951 13.3958 10.9082 13.4912 10.8815 13.6023C10.798 13.9498 10.6124 14.6969 10.576 14.8498C10.528 15.0512 10.4166 15.0939 10.2081 14.9969C8.83426 14.3574 7.9753 12.3488 7.9753 10.7355C7.9753 7.26559 10.4964 4.07891 15.2434 4.07891C19.0593 4.07891 22.0247 6.79806 22.0247 10.432C22.0247 14.223 19.6344 17.2739 16.3167 17.2739C15.202 17.2739 14.1542 16.6949 13.7955 16.0109C13.7955 16.0109 13.2439 18.1111 13.1102 18.6258C12.8619 19.5812 12.1914 20.7788 11.743 21.5095C12.7722 21.8281 13.866 22 15 22C21.0751 22 26 17.0751 26 11C26 4.92497 21.0751 8.97034e-05 15 8.97034e-05Z"/>
</g>
<defs>
<filter id="filter0_d_85_5274" x="0" y="0" width="30" height="30" filterUnits="userSpaceOnUse" color-interpolation-filters="sRGB">
<feFlood flood-opacity="0" result="BackgroundImageFix"/>
<feColorMatrix in="SourceAlpha" type="matrix" values="0 0 0 0 0 0 0 0 0 0 0 0 0 0 0 0 0 0 127 0" result="hardAlpha"/>
<feOffset dy="4"/>
<feGaussianBlur stdDeviation="2"/>
<feComposite in2="hardAlpha" operator="out"/>
<feColorMatrix type="matrix" values="0 0 0 0 0 0 0 0 0 0 0 0 0 0 0 0 0 0 0.25 0"/>
<feBlend mode="normal" in2="BackgroundImageFix" result="effect1_dropShadow_85_5274"/>
<feBlend mode="normal" in="SourceGraphic" in2="effect1_dropShadow_85_5274" result="shape"/>
</filter>
</defs>
</svg>
